<svg width="54" height="54" viewBox="0 0 74 74" fill="none" xmlns="http://www.w3.org/2000/svg">
<path d="M0.865356 62.2134C0.865356 68.3802 5.59758 73.096 11.7859 73.096H62.7482C68.9365 73.096 73.6687 68.3802 73.6687 62.2134V33.1932H0.865356V62.2134ZM62.7482 7.80047H55.4679V4.17294C55.4679 1.99642 54.0118 0.54541 51.8277 0.54541C49.6436 0.54541 48.1875 1.99642 48.1875 4.17294V7.80047H26.3465V4.17294C26.3465 1.99642 24.8905 0.54541 22.7064 0.54541C20.5223 0.54541 19.0662 1.99642 19.0662 4.17294V7.80047H11.7859C5.59758 7.80047 0.865356 12.5163 0.865356 18.6831V25.9381H73.6687V18.6831C73.6687 12.5163 68.9365 7.80047 62.7482 7.80047Z" fill="#FDE6F3"/>
</svg>
