<svg width="58" height="54" viewBox="0 0 74 70" fill="none" xmlns="http://www.w3.org/2000/svg">
<path d="M73.4998 59.2363C73.332 60.3456 72.9084 61.4011 72.2621 62.3197C71.619 63.2223 70.7672 63.9573 69.7788 64.4624C68.7903 64.9675 67.6943 65.228 66.5835 65.2217H60.5735C60.1461 65.2204 59.725 65.1177 59.3453 64.9222C58.9655 64.7267 58.6378 64.4439 58.3894 64.0972C58.1382 63.7507 57.9712 63.3508 57.9017 62.929C57.8322 62.5072 57.8621 62.075 57.989 61.6667C59.3359 57.3862 59.0447 52.5616 46.8465 44.835C46.3494 44.5105 45.9686 44.0369 45.7593 43.4827C45.5499 42.9284 45.5227 42.3222 45.6816 41.7516C45.8522 41.1895 46.1984 40.6963 46.6698 40.344C47.1413 39.9916 47.7133 39.7985 48.3025 39.7927C53.509 39.8633 58.59 41.3947 62.963 44.2114C67.336 47.0281 70.8239 51.0159 73.0266 55.7176C73.4743 56.8333 73.6369 58.0424 73.4998 59.2363ZM64.3957 19.2246C64.3861 23.4747 62.6874 27.5479 59.6713 30.5529C56.6552 33.5578 52.5674 35.2497 48.3025 35.2583C47.8247 35.2497 47.3573 35.1179 46.9459 34.8757C46.5344 34.6335 46.1929 34.2893 45.9546 33.8765C45.7163 33.4637 45.5894 32.9964 45.5862 32.5202C45.5831 32.044 45.7037 31.5751 45.9364 31.1592C48.1641 27.6076 49.3453 23.5036 49.3453 19.3153C49.3453 15.127 48.1641 11.023 45.9364 7.47145C45.6509 7.06485 45.4824 6.58817 45.4492 6.093C45.416 5.59783 45.5193 5.10305 45.748 4.6622C45.9767 4.22135 46.322 3.85123 46.7466 3.59191C47.1712 3.33258 47.6589 3.19393 48.1569 3.19097C50.2881 3.18556 52.3979 3.61391 54.3571 4.44976C56.3163 5.2856 58.0836 6.51134 59.5507 8.05186C62.545 11.0649 64.2326 15.1292 64.2501 19.3697L64.3957 19.2246Z" fill="#FDE6F3"/>
<path d="M54.1628 59.1275C54.31 60.9034 53.9591 62.685 53.1492 64.2736C52.3393 65.8622 51.1022 67.1952 49.5761 68.1238C48.0546 69.0561 46.3 69.5458 44.5163 69.5385H10.397C8.61102 69.5465 6.85837 69.0565 5.3372 68.1238C3.80764 67.2008 2.56926 65.8679 1.76341 64.2772C0.957558 62.6865 0.616692 60.902 0.779713 59.1275C0.911774 57.357 1.54265 55.6595 2.5998 54.2304C5.50214 50.3822 9.24026 47.238 13.5344 45.0331C17.8285 42.8281 22.5675 41.6195 27.3966 41.4977C32.2423 41.5936 37.0028 42.7865 41.3177 44.9861C45.6326 47.1857 49.3889 50.3344 52.3026 54.1941C53.362 55.6387 54.0077 57.3449 54.1628 59.1275ZM45.3172 17.8463C45.3076 22.5621 43.4254 27.0825 40.0819 30.4199C36.7384 33.7572 32.2053 35.6402 27.4731 35.6574C24.8382 35.651 22.2375 35.0632 19.8576 33.9364C17.4777 32.8095 15.3777 31.1716 13.7084 29.1401C12.0391 27.1086 10.8418 24.734 10.2026 22.1867C9.56331 19.6395 9.49795 16.9828 10.0112 14.4074C10.5266 11.8313 11.6085 9.40112 13.1791 7.29159C14.7497 5.18207 16.7699 3.44565 19.0945 2.20727C21.4191 0.968886 23.9902 0.259313 26.6229 0.129598C29.2556 -0.000117227 31.8844 0.453249 34.3202 1.45708C37.5778 2.79741 40.364 5.0694 42.327 7.98627C44.29 10.9031 45.3419 14.3342 45.3499 17.8463H45.3172Z" fill="#FDE6F3"/>
</svg>
