<svg width="40" height="40" viewBox="0 0 40 40" fill="none" xmlns="http://www.w3.org/2000/svg">
<path d="M33.3332 16.6667C33.3332 26.6667 19.9998 36.6667 19.9998 36.6667C19.9998 36.6667 6.6665 26.6667 6.6665 16.6667C6.6665 13.1305 8.07126 9.7391 10.5717 7.23862C13.0722 4.73813 16.4636 3.33337 19.9998 3.33337C23.5361 3.33337 26.9274 4.73813 29.4279 7.23862C31.9284 9.7391 33.3332 13.1305 33.3332 16.6667Z" stroke="#D2FC3C" stroke-width="3" stroke-linecap="round" stroke-linejoin="round"/>
<path d="M20 21.6666C22.7614 21.6666 25 19.428 25 16.6666C25 13.9052 22.7614 11.6666 20 11.6666C17.2386 11.6666 15 13.9052 15 16.6666C15 19.428 17.2386 21.6666 20 21.6666Z" stroke="#D2FC3C" stroke-width="3" stroke-linecap="round" stroke-linejoin="round"/>
</svg>
