<svg width="54" height="48" viewBox="0 0 58 48" fill="none" xmlns="http://www.w3.org/2000/svg">
<path d="M55.2934 6.37865C56.4347 9.32265 54.8374 11.3386 51.7467 13.328C49.2534 14.928 46.0774 16.6666 42.712 19.6346C39.4107 22.544 36.192 26.0506 33.3307 29.5013C30.8826 32.4637 28.552 35.5212 26.344 38.6666C25.24 40.2426 23.696 42.5946 23.696 42.5946C23.142 43.4506 22.3789 44.1513 21.4789 44.6304C20.5788 45.1096 19.5715 45.3515 18.552 45.3333C17.5331 45.3273 16.5327 45.0607 15.6459 44.559C14.759 44.0572 14.0153 43.3369 13.4854 42.4666C10.8214 37.9946 8.76804 36.2266 7.82404 35.5946C5.29871 33.8933 2.33337 33.648 2.33337 29.6906C2.33337 26.5466 4.98671 24 8.25871 24C10.5707 24.0853 12.7174 24.9946 14.6214 26.2746C15.8374 27.0906 17.1254 28.1733 18.464 29.5946C20.2581 27.1465 22.1238 24.7517 24.0587 22.4133C27.144 18.6933 30.7867 14.7013 34.6934 11.256C38.5334 7.86931 42.9734 4.69865 47.68 3.02398C50.7467 1.93065 54.1547 3.43198 55.2934 6.37865Z" stroke="#D2FC3C" stroke-width="4" stroke-linecap="round" stroke-linejoin="round"/>
</svg>
