<svg width="52" height="52" viewBox="0 0 56 56" fill="none" xmlns="http://www.w3.org/2000/svg">
<g clip-path="url(#clip0_611_260)">
<mask id="mask0_611_260" style="mask-type:luminance" maskUnits="userSpaceOnUse" x="0" y="0" width="56" height="56">
<path fill-rule="evenodd" clip-rule="evenodd" d="M56 17.4407C56 16.7759 56.0003 16.111 55.9962 15.4462C55.9929 14.8861 55.9864 14.3262 55.9712 13.7664C55.9383 12.5463 55.8663 11.3157 55.6493 10.1092C55.4293 8.88528 55.0699 7.74619 54.5036 6.63414C53.9468 5.54113 53.2196 4.54095 52.3519 3.67383C51.4844 2.80672 50.4839 2.07994 49.3905 1.52355C48.2773 0.957094 47.137 0.597852 45.9117 0.377863C44.7051 0.161203 43.4742 0.0893686 42.2541 0.0564076C41.6939 0.0412523 41.1337 0.034864 40.5733 0.0313979C39.9081 0.0273203 39.2429 0.0276601 38.5777 0.0276601L30.8541 0H25.0775L17.4906 0.0276601C16.8241 0.0276601 16.1576 0.0273203 15.4911 0.0313979C14.9296 0.034864 14.3684 0.0412523 13.8071 0.0564076C12.5841 0.0893686 11.3505 0.161271 10.141 0.378203C8.91406 0.598124 7.77205 0.95723 6.65736 1.52328C5.56163 2.07974 4.55901 2.80658 3.68965 3.67383C2.82044 4.54088 2.09183 5.54085 1.53408 6.63367C0.966197 7.74625 0.606141 8.88603 0.385541 10.1106C0.168339 11.3166 0.0963682 12.5468 0.0632714 13.7664C0.0481841 14.3262 0.0416599 14.8862 0.0382619 15.4462C0.0341842 16.1111 0 16.937 0 17.6019L0.000203882 25.0837L0 30.9222L0.034524 38.563C0.034524 39.2287 0.0342522 39.8945 0.0382619 40.5602C0.0416599 41.121 0.0481841 41.6817 0.0633393 42.2423C0.0963682 43.464 0.168474 44.6963 0.385881 45.9045C0.606413 47.13 0.966401 48.2707 1.5338 49.3842C2.09163 50.4788 2.82037 51.4803 3.68965 52.3486C4.55894 53.2169 5.56129 53.9447 6.65682 54.5019C7.77219 55.0691 8.91474 55.4288 10.1424 55.6491C11.3513 55.8661 12.5846 55.938 13.8071 55.971C14.3684 55.9861 14.9297 55.9926 15.4912 55.996C16.1576 56.0001 16.8241 55.9998 17.4906 55.9998L25.1461 56H30.9371L38.5777 55.9997C39.2429 55.9997 39.9081 56.0001 40.5733 55.996C41.1337 55.9926 41.6939 55.9861 42.2541 55.971C43.4746 55.938 44.706 55.8659 45.9131 55.6488C47.1377 55.4285 48.2774 55.0689 49.39 54.5021C50.4836 53.9449 51.4843 53.2171 52.3519 52.3486C53.2195 51.4804 53.9466 50.4791 54.5034 49.3847C55.07 48.2707 55.4294 47.1294 55.6496 45.903C55.8664 44.6954 55.9383 43.4635 55.9713 42.2423C55.9864 41.6817 55.9929 41.121 55.9962 40.5602C56.0003 39.8945 56 39.2287 56 38.563C56 38.563 55.9996 31.0571 55.9996 30.9222V25.0776C55.9996 24.978 56 17.4407 56 17.4407Z" fill="white"/>
</mask>
<g mask="url(#mask0_611_260)">
<rect x="-3.94177" y="-4.21362" width="62.1165" height="62.1165" fill="#4B58EA"/>
<g filter="url(#filter0_ii_611_260)">
<path fill-rule="evenodd" clip-rule="evenodd" d="M56 17.4407C56 16.7759 56.0003 16.111 55.9962 15.4462C55.9929 14.8861 55.9864 14.3262 55.9712 13.7664C55.9383 12.5463 55.8663 11.3157 55.6493 10.1092C55.4293 8.88528 55.0699 7.74619 54.5036 6.63414C53.9468 5.54113 53.2196 4.54095 52.3519 3.67383C51.4844 2.80672 50.4839 2.07994 49.3905 1.52355C48.2773 0.957094 47.137 0.597852 45.9117 0.377863C44.7051 0.161203 43.4742 0.0893686 42.2541 0.0564076C41.6939 0.0412523 41.1337 0.034864 40.5733 0.0313979C39.9081 0.0273203 39.2429 0.0276601 38.5777 0.0276601L30.8541 0H25.0775L17.4906 0.0276601C16.8241 0.0276601 16.1576 0.0273203 15.4911 0.0313979C14.9296 0.034864 14.3684 0.0412523 13.8071 0.0564076C12.5841 0.0893686 11.3505 0.161271 10.141 0.378203C8.91406 0.598124 7.77205 0.95723 6.65736 1.52328C5.56163 2.07974 4.55901 2.80658 3.68965 3.67383C2.82044 4.54088 2.09183 5.54085 1.53408 6.63367C0.966197 7.74625 0.606141 8.88603 0.385541 10.1106C0.168339 11.3166 0.0963682 12.5468 0.0632714 13.7664C0.0481841 14.3262 0.0416599 14.8862 0.0382619 15.4462C0.0341842 16.1111 0 16.937 0 17.6019L0.000203882 25.0837L0 30.9222L0.034524 38.563C0.034524 39.2287 0.0342522 39.8945 0.0382619 40.5602C0.0416599 41.121 0.0481841 41.6817 0.0633393 42.2423C0.0963682 43.464 0.168474 44.6963 0.385881 45.9045C0.606413 47.13 0.966401 48.2707 1.5338 49.3842C2.09163 50.4788 2.82037 51.4803 3.68965 52.3486C4.55894 53.2169 5.56129 53.9447 6.65682 54.5019C7.77219 55.0691 8.91474 55.4288 10.1424 55.6491C11.3513 55.8661 12.5846 55.938 13.8071 55.971C14.3684 55.9861 14.9297 55.9926 15.4912 55.996C16.1576 56.0001 16.8241 55.9998 17.4906 55.9998L25.1461 56H30.9371L38.5777 55.9997C39.2429 55.9997 39.9081 56.0001 40.5733 55.996C41.1337 55.9926 41.6939 55.9861 42.2541 55.971C43.4746 55.938 44.706 55.8659 45.9131 55.6488C47.1377 55.4285 48.2774 55.0689 49.39 54.5021C50.4836 53.9449 51.4843 53.2171 52.3519 52.3486C53.2195 51.4804 53.9466 50.4791 54.5034 49.3847C55.07 48.2707 55.4294 47.1294 55.6496 45.903C55.8664 44.6954 55.9383 43.4635 55.9713 42.2423C55.9864 41.6817 55.9929 41.121 55.9962 40.5602C56.0003 39.8945 56 39.2287 56 38.563C56 38.563 55.9996 31.0571 55.9996 30.9222V25.0776C55.9996 24.978 56 17.4407 56 17.4407Z" fill="url(#paint0_linear_611_260)" fill-opacity="0.01"/>
</g>
<path d="M40.4159 17.0306C38.2636 16.0236 35.9622 15.2917 33.5562 14.875C33.2607 15.4092 32.9155 16.1278 32.6775 16.6994C30.1198 16.3147 27.5857 16.3147 25.075 16.6994C24.8371 16.1278 24.484 15.4092 24.1859 14.875C21.7772 15.2917 19.4732 16.0263 17.3209 17.0359C12.9796 23.5962 11.8028 29.9935 12.3912 36.2999C15.2706 38.4501 18.061 39.7564 20.8044 40.6111C21.4817 39.6789 22.0858 38.6879 22.6062 37.6435C21.6151 37.2669 20.6658 36.8021 19.7688 36.2625C20.0067 36.0862 20.2395 35.9019 20.4644 35.7123C25.9354 38.2712 31.8798 38.2712 37.2855 35.7123C37.513 35.9019 37.7458 36.0862 37.9811 36.2625C37.0815 36.8047 36.1296 37.2695 35.1384 37.6462C35.6588 38.6879 36.2603 39.6816 36.9403 40.6137C39.6863 39.759 42.4793 38.4528 45.3587 36.2999C46.0491 28.9891 44.1792 22.6506 40.4159 17.0306ZM23.3516 32.4215C21.7092 32.4215 20.3624 30.8883 20.3624 29.0212C20.3624 27.1541 21.6805 25.6182 23.3516 25.6182C25.0227 25.6182 26.3696 27.1514 26.3408 29.0212C26.3434 30.8883 25.0227 32.4215 23.3516 32.4215ZM34.3983 32.4215C32.756 32.4215 31.4091 30.8883 31.4091 29.0212C31.4091 27.1541 32.7271 25.6182 34.3983 25.6182C36.0694 25.6182 37.4163 27.1514 37.3875 29.0212C37.3875 30.8883 36.0694 32.4215 34.3983 32.4215Z" fill="url(#paint1_linear_611_260)"/>
</g>
</g>
<defs>
<filter id="filter0_ii_611_260" x="0" y="-1.35922" width="56" height="58.3107" filterUnits="userSpaceOnUse" color-interpolation-filters="sRGB">
<feFlood flood-opacity="0" result="BackgroundImageFix"/>
<feBlend mode="normal" in="SourceGraphic" in2="BackgroundImageFix" result="shape"/>
<feColorMatrix in="SourceAlpha" type="matrix" values="0 0 0 0 0 0 0 0 0 0 0 0 0 0 0 0 0 0 127 0" result="hardAlpha"/>
<feOffset dy="-1.35922"/>
<feGaussianBlur stdDeviation="1.35922"/>
<feComposite in2="hardAlpha" operator="arithmetic" k2="-1" k3="1"/>
<feColorMatrix type="matrix" values="0 0 0 0 0 0 0 0 0 0 0 0 0 0 0 0 0 0 0.3 0"/>
<feBlend mode="normal" in2="shape" result="effect1_innerShadow_611_260"/>
<feColorMatrix in="SourceAlpha" type="matrix" values="0 0 0 0 0 0 0 0 0 0 0 0 0 0 0 0 0 0 127 0" result="hardAlpha"/>
<feOffset dy="0.951456"/>
<feGaussianBlur stdDeviation="2.17476"/>
<feComposite in2="hardAlpha" operator="arithmetic" k2="-1" k3="1"/>
<feColorMatrix type="matrix" values="0 0 0 0 1 0 0 0 0 1 0 0 0 0 1 0 0 0 0.15 0"/>
<feBlend mode="normal" in2="effect1_innerShadow_611_260" result="effect2_innerShadow_611_260"/>
</filter>
<linearGradient id="paint0_linear_611_260" x1="-19.1066" y1="0" x2="-19.1066" y2="94.2133" gradientUnits="userSpaceOnUse">
<stop stop-color="white"/>
<stop offset="0.489516" stop-color="#EFEFEF"/>
<stop offset="1" stop-color="#C0C0C0"/>
</linearGradient>
<linearGradient id="paint1_linear_611_260" x1="28.6042" y1="27.5071" x2="30.1634" y2="40.4586" gradientUnits="userSpaceOnUse">
<stop stop-color="white"/>
<stop offset="1" stop-color="#AAB1FF"/>
</linearGradient>
<clipPath id="clip0_611_260">
<rect width="56" height="56" fill="white"/>
</clipPath>
</defs>
</svg>
