<svg width="52" height="52" viewBox="0 0 56 56" fill="none" xmlns="http://www.w3.org/2000/svg">
<g clip-path="url(#clip0_611_261)">
<path d="M10.2594 12.5344C9.74531 12.6547 10.0734 12.6328 9.64687 12.6875C7.82031 13.0813 9.17656 13.4312 10.2594 12.5344ZM42.3828 13.2672C42.5141 13.1797 42.9734 12.7312 41.5406 12.2937C41.6281 12.7422 41.2453 12.6984 41.2453 12.95C42.3063 13.9125 42.7438 15.5859 44.1 15.9359C44.3625 14.7328 42.8969 14.1422 42.3828 13.2672ZM9.28594 12.1844C9.45 13.1578 10.1828 11.1562 10.1937 10.4453C9.90937 10.6094 9.625 10.7734 9.32969 10.9047C10.0188 11.2547 9.41719 11.6266 8.67344 12.1844C7.16406 14.0656 10.0844 10.7188 9.28594 12.1844ZM28 0C12.5344 0 0 12.5344 0 28C0 43.4547 12.5344 56 28 56C43.4656 56 56 43.4547 56 28C56 12.5344 43.4656 0 28 0ZM28.7437 9.38438L28.875 9.42812C28.35 10.1062 31.6094 12.0859 29.2688 12.25C27.0813 12.8734 30.1875 11.6812 28.4922 11.8891C29.3891 10.6422 27.7812 10.6203 28.7437 9.38438ZM15.4656 11.1781C14.6781 10.5219 12.2063 12.075 13.0703 11.7031C15.2141 10.8609 13.2125 11.7906 13.7156 12.7969C13.2563 13.7484 13.5625 11.8562 12.425 12.9828C11.6047 13.1687 9.59219 15.0281 9.84375 14.4594C9.77812 15.3453 7.44844 16.3953 7.13125 17.8719C6.36562 19.9172 6.94531 17.7953 6.80312 16.9969C5.70937 15.6078 3.71875 19.3484 4.30938 20.825C5.30469 19.075 5.22813 20.6391 4.50625 21.4156C5.23906 22.7609 3.83906 24.5109 5.22813 25.5063C5.84062 25.6484 7.06563 23.45 6.52969 25.7359C6.90156 23.7563 7.55781 26.2063 8.61875 25.6594C8.68438 26.6984 9.32969 26.2172 9.47188 27.475C11.2437 27.3438 12.8625 30.3406 10.7516 30.9094C11.0688 30.8219 11.6922 31.3797 12.4141 30.9531C13.6391 31.9266 16.8656 32.0469 16.9531 34.4531C14.7328 35.5141 16.4062 38.4234 14.4812 39.4625C12.2719 39.1344 13.7266 42.1859 12.7969 41.8359C13.1687 44.0344 10.5656 41.5516 11.5719 42.7656C13.4203 43.9031 10.7625 43.6734 11.5938 44.5047C10.6641 44.3078 12.1734 46.2328 12.425 46.9438C13.7594 49.1094 11.2766 46.4625 10.5437 45.7406C9.84375 44.3406 8.19219 41.6609 7.73281 39.4625C7.47031 36.2687 4.99844 34.125 4.42969 31.0078C3.86094 29.2687 5.99375 26.4797 4.84531 25.5063C3.85 24.7297 4.25469 22.0719 3.66406 20.6719C5.14062 14.2734 9.83281 8.88125 15.4656 5.6875C14.8859 6.11406 18.7797 4.58281 18.3313 4.95469C18.2109 5.22813 20.6063 3.91563 22.05 3.71875C21.8969 3.74062 18.2984 5.03125 19.2937 4.85625C17.7516 5.61094 19.1406 5.18438 19.9062 4.80156C18.375 5.92813 17.1938 5.61094 15.4547 6.60625C13.7047 7.06563 14.0656 8.88125 12.8187 9.78906C13.5516 9.92031 15.3891 7.89687 16.4609 7.18594C18.9219 5.99375 15.2141 9.35156 17.5547 7.90781C16.7672 8.64062 16.9312 9.81094 16.45 10.1391C16.2094 10.0734 17.4016 10.7078 15.4656 11.1781ZM19.2937 6.14687C19.0422 6.48594 18.6922 7.21875 18.4844 6.77031C18.2 6.9125 18.0906 7.525 17.5547 7.03281C17.8719 6.80313 18.2 6.25625 17.5766 6.59531C17.8609 6.28906 20.3984 5.425 20.2563 5.09687C20.7047 4.8125 20.6609 4.67031 20.1469 4.84531C19.8844 4.75781 20.7703 4.01406 21.9516 3.91562C22.1156 3.91562 22.1813 4.025 21.8859 3.99219C20.1031 4.53906 20.8687 4.38594 22.0719 3.99219C21.6125 4.25469 21.2953 4.33125 21.2188 4.45156C22.4219 4.01406 21.1531 4.76875 21.4266 4.71406C21.0875 4.88906 21.4812 4.94375 20.825 5.19531C20.9453 5.09688 19.7531 5.90625 20.4641 5.66563C19.775 6.32188 19.4688 6.33281 19.2937 6.14687ZM20.3438 7.71094C20.3656 6.66094 21.875 5.99375 21.6891 5.93906C23.5484 5.06406 21.0438 5.97188 22.5094 5.18438C23.0562 5.12969 24.2156 3.37969 25.8234 3.27031C27.5953 2.73438 26.775 3.30313 28.0875 2.8L27.825 3.01875C27.5953 3.05156 27.8797 3.45625 27.0484 4.06875C26.9609 5.02031 25.4625 4.58281 26.2063 5.6C25.725 4.91094 25.0031 5.57812 25.9109 5.64375C24.9375 6.3875 22.6734 6.51875 21.5906 7.75469C20.8906 8.76094 20.2453 8.44375 20.3438 7.71094ZM28.1203 11.2109C27.3766 13.0047 26.6547 10.9484 27.9672 10.6203C28.2953 10.7953 28.4266 10.85 28.1203 11.2109ZM25.3203 7.62344C25.1016 6.81406 25.2766 7.24062 26.5781 6.85781C27.475 7.50313 25.7797 7.92969 25.3203 7.62344ZM45.6859 39.725C44.6578 37.9531 46.9328 36.3125 47.6984 34.825C47.6 36.5641 47.3813 38.2812 45.6859 39.725ZM49.5578 19.4797C48.4422 19.5672 47.4359 19.8297 46.4297 19.1953C44.1109 16.6578 46.8563 22.0609 47.6219 19.8516C50.3781 20.9016 47.5781 25.4297 45.8391 24.9594C44.8656 22.8594 43.6625 20.5516 41.5406 19.5234C43.1703 21.3281 43.9797 23.5484 45.7297 25.1781C45.85 27.4531 48.1578 24.3469 48.0156 26.1078C48.2344 29.1375 44.5922 30.9531 45.2266 33.9937C46.5828 36.7609 42.6125 37.2641 43.0609 39.7469C41.4641 41.5297 39.7578 43.9359 36.8922 43.5531C36.8922 42.0438 36.1266 40.7641 35.9516 39.2109C34.3984 37.2422 37.5922 35.1312 35.6125 33.075C33.3266 32.5609 36.0828 29.4109 33.7313 29.7063C32.3203 28.2953 30.2531 29.6625 28.2297 29.6734C25.6922 29.9141 23.0781 26.5563 24.2047 24.1828C23.3078 21.7109 27.0484 20.9891 27.1469 18.8125C28.9406 17.3141 31.4891 17.5 33.9172 17.15C33.7422 18.8891 35.5797 18.9 36.9688 19.4797C37.7453 17.5984 40.1625 19.7859 41.8141 18.5938C42.3828 15.8156 40.2063 17.4891 38.9594 16.6031C37.45 14.3938 42.1859 15.4656 41.6938 14.3063C39.8563 14.2953 40.8953 12.0422 39.5938 13.3C40.7641 13.5078 39.3859 14.4266 39.4188 13.3766C37.6469 12.8625 39.3531 15.3891 38.4562 15.6297C37.0891 15.0609 37.7344 16.275 37.8766 16.4609C37.2859 17.7406 36.5641 14.5797 34.8906 14.6672C33.2281 13.1469 34.2344 15.3562 35.6781 15.7172C35.3719 15.8047 35.8531 17.0625 35.4703 16.5266C34.2781 14.8859 32.0141 13.7922 30.6687 15.8047C30.5266 17.6859 26.6984 18.2219 27.3109 16.0234C26.4141 13.7484 30.0891 15.9578 29.75 14.1422C27.3875 12.5781 30.3953 13.0812 31.1938 11.6156C33.0094 11.6703 31.2703 10.1281 32.1234 9.67969C32.0359 11.3531 33.5125 11.0359 34.6828 10.7188C34.3984 9.75625 35.3828 9.78906 34.7812 8.99062C37.4938 7.90781 32.7141 9.49375 33.6766 7.12031C32.5062 6.31094 33.1844 8.90312 33.6766 9.17656C33.7094 9.975 33.0312 10.9594 32.1016 9.28594C30.7453 10.1719 30.8875 8.38906 30.8 8.575C30.6469 7.88594 31.8281 7.85313 31.8391 6.65C31.7406 5.88438 31.7625 5.47969 32.3094 5.43594C32.3531 5.54531 34.5516 5.57812 35.3281 6.48594C33.2062 6.05937 35.0109 6.83594 35.9625 7.27344C34.9453 6.475 36.3672 7.27344 35.5359 6.36562C35.8641 6.43125 34.6281 5.11875 35.8969 6.26719C35.2078 5.44688 37.2422 5.6875 36.0391 5.075C37.8 5.56719 36.7609 5.11875 35.7219 4.67031C32.8563 2.96406 40.7859 6.97813 37.5484 5.19531C39.6156 5.64375 33.1297 3.59844 36.0828 4.49531C34.9562 4.00312 36.05 4.27656 37.0672 4.59375C35.2406 4.025 32.5063 2.96406 32.6156 2.92031C33.25 2.96406 33.8734 3.10625 34.475 3.28125C36.3453 3.83906 33.9391 3.15 34.4531 3.16094C40.8844 4.8125 46.5172 9.12187 49.9406 14.7547C50.7391 15.5969 52.9156 21.1641 51.7781 18.6922C52.2922 20.6609 52.3687 22.7828 52.6422 24.7953C52.0734 24.1609 51.4391 21.8203 50.8922 20.5188C50.6625 21.0219 50.4 19.8078 49.5578 19.4797Z" fill="#F6F6F6"/>
</g>
<defs>
<clipPath id="clip0_611_261">
<rect width="56" height="56" fill="white"/>
</clipPath>
</defs>
</svg>
