<svg width="52" height="52" viewBox="0 0 56 56" fill="none" xmlns="http://www.w3.org/2000/svg">
<g clip-path="url(#clip0_611_258)">
<mask id="mask0_611_258" style="mask-type:luminance" maskUnits="userSpaceOnUse" x="0" y="0" width="56" height="56">
<path fill-rule="evenodd" clip-rule="evenodd" d="M56 17.4407C56 16.7759 56.0003 16.111 55.9962 15.4462C55.9929 14.8861 55.9864 14.3262 55.9712 13.7664C55.9383 12.5463 55.8663 11.3157 55.6493 10.1092C55.4293 8.88528 55.0699 7.74619 54.5036 6.63414C53.9468 5.54113 53.2196 4.54095 52.3519 3.67383C51.4844 2.80672 50.4839 2.07994 49.3905 1.52355C48.2773 0.957094 47.137 0.597852 45.9117 0.377863C44.7051 0.161203 43.4742 0.0893686 42.2541 0.0564076C41.6939 0.0412523 41.1337 0.034864 40.5733 0.0313979C39.9081 0.0273203 39.2429 0.0276601 38.5777 0.0276601L30.8541 0H25.0775L17.4906 0.0276601C16.8241 0.0276601 16.1576 0.0273203 15.4911 0.0313979C14.9296 0.034864 14.3684 0.0412523 13.8071 0.0564076C12.5841 0.0893686 11.3505 0.161271 10.141 0.378203C8.91406 0.598124 7.77205 0.95723 6.65736 1.52328C5.56163 2.07974 4.55901 2.80658 3.68965 3.67383C2.82044 4.54088 2.09183 5.54085 1.53408 6.63367C0.966197 7.74625 0.606141 8.88603 0.385541 10.1106C0.168339 11.3166 0.0963682 12.5468 0.0632714 13.7664C0.0481841 14.3262 0.0416599 14.8862 0.0382619 15.4462C0.0341842 16.1111 0 16.937 0 17.6019L0.000203882 25.0837L0 30.9222L0.034524 38.563C0.034524 39.2287 0.0342522 39.8945 0.0382619 40.5602C0.0416599 41.121 0.0481841 41.6817 0.0633393 42.2423C0.0963682 43.464 0.168474 44.6963 0.385881 45.9045C0.606413 47.13 0.966401 48.2707 1.5338 49.3842C2.09163 50.4788 2.82037 51.4803 3.68965 52.3486C4.55894 53.2169 5.56129 53.9447 6.65682 54.5019C7.77219 55.0691 8.91474 55.4288 10.1424 55.6491C11.3513 55.8661 12.5846 55.938 13.8071 55.971C14.3684 55.9861 14.9297 55.9926 15.4912 55.996C16.1576 56.0001 16.8241 55.9998 17.4906 55.9998L25.1461 56H30.9371L38.5777 55.9997C39.2429 55.9997 39.9081 56.0001 40.5733 55.996C41.1337 55.9926 41.6939 55.9861 42.2541 55.971C43.4746 55.938 44.706 55.8659 45.9131 55.6488C47.1377 55.4285 48.2774 55.0689 49.39 54.5021C50.4836 53.9449 51.4843 53.2171 52.3519 52.3486C53.2195 51.4804 53.9466 50.4791 54.5034 49.3847C55.07 48.2707 55.4294 47.1294 55.6496 45.903C55.8664 44.6954 55.9383 43.4635 55.9713 42.2423C55.9864 41.6817 55.9929 41.121 55.9962 40.5602C56.0003 39.8945 56 39.2287 56 38.563C56 38.563 55.9996 31.0571 55.9996 30.9222V25.0776C55.9996 24.978 56 17.4407 56 17.4407Z" fill="white"/>
</mask>
<g mask="url(#mask0_611_258)">
<rect x="-3.94177" y="-4.21362" width="62.1165" height="62.1165" fill="#2E0315"/>
<path d="M27.5718 -0.875C15.6994 -0.875 12.2272 -0.862749 11.5522 -0.806744C9.11582 -0.604165 7.59973 -0.220445 5.94804 0.602125C4.67515 1.23437 3.67128 1.96724 2.68053 2.99458C0.876178 4.86811 -0.217367 7.17306 -0.61323 9.91291C-0.805694 11.243 -0.861683 11.5143 -0.873056 18.3084C-0.87743 20.5731 -0.873056 23.5536 -0.873056 27.5513C-0.873056 39.4174 -0.859933 42.887 -0.803069 43.5608C-0.606231 45.9323 -0.234426 47.4243 0.552926 49.0563C2.05764 52.1803 4.93148 54.5255 8.31709 55.4006C9.48937 55.7025 10.7841 55.8687 12.4463 55.9475C13.1506 55.9781 20.3286 56 27.511 56C34.6934 56 41.8758 55.9913 42.5625 55.9563C44.4872 55.8657 45.6048 55.7156 46.8405 55.3962C50.248 54.5168 53.0693 52.2066 54.6046 49.0388C55.3767 47.4462 55.7682 45.8973 55.9453 43.6496C55.9838 43.1596 56 35.3465 56 27.5439C56 19.74 55.9825 11.9413 55.944 11.4513C55.7647 9.16735 55.3732 7.6316 54.5762 6.00833C53.9223 4.67953 53.1962 3.6872 52.142 2.67255C50.2606 0.875148 47.9598 -0.218694 45.2181 -0.614228C43.8897 -0.806307 43.625 -0.863186 36.8275 -0.875H27.5718Z" fill="url(#paint0_radial_611_258)"/>
<path d="M27.5718 -0.875C15.6994 -0.875 12.2272 -0.862749 11.5522 -0.806744C9.11582 -0.604165 7.59973 -0.220445 5.94804 0.602125C4.67515 1.23437 3.67128 1.96724 2.68053 2.99458C0.876178 4.86811 -0.217367 7.17306 -0.61323 9.91291C-0.805694 11.243 -0.861683 11.5143 -0.873056 18.3084C-0.87743 20.5731 -0.873056 23.5536 -0.873056 27.5513C-0.873056 39.4174 -0.859933 42.887 -0.803069 43.5608C-0.606231 45.9323 -0.234426 47.4243 0.552926 49.0563C2.05764 52.1803 4.93148 54.5255 8.31709 55.4006C9.48937 55.7025 10.7841 55.8687 12.4463 55.9475C13.1506 55.9781 20.3286 56 27.511 56C34.6934 56 41.8758 55.9913 42.5625 55.9563C44.4872 55.8657 45.6048 55.7156 46.8405 55.3962C50.248 54.5168 53.0693 52.2066 54.6046 49.0388C55.3767 47.4462 55.7682 45.8973 55.9453 43.6496C55.9838 43.1596 56 35.3465 56 27.5439C56 19.74 55.9825 11.9413 55.944 11.4513C55.7647 9.16735 55.3732 7.6316 54.5762 6.00833C53.9223 4.67953 53.1962 3.6872 52.142 2.67255C50.2606 0.875148 47.9598 -0.218694 45.2181 -0.614228C43.8897 -0.806307 43.625 -0.863186 36.8275 -0.875H27.5718Z" fill="url(#paint1_radial_611_258)"/>
<g filter="url(#filter0_ii_611_258)">
<path fill-rule="evenodd" clip-rule="evenodd" d="M56 17.4407C56 16.7759 56.0003 16.111 55.9962 15.4462C55.9929 14.8861 55.9864 14.3262 55.9712 13.7664C55.9383 12.5463 55.8663 11.3157 55.6493 10.1092C55.4293 8.88528 55.0699 7.74619 54.5036 6.63414C53.9468 5.54113 53.2196 4.54095 52.3519 3.67383C51.4844 2.80672 50.4839 2.07994 49.3905 1.52355C48.2773 0.957094 47.137 0.597852 45.9117 0.377863C44.7051 0.161203 43.4742 0.0893686 42.2541 0.0564076C41.6939 0.0412523 41.1337 0.034864 40.5733 0.0313979C39.9081 0.0273203 39.2429 0.0276601 38.5777 0.0276601L30.8541 0H25.0775L17.4906 0.0276601C16.8241 0.0276601 16.1576 0.0273203 15.4911 0.0313979C14.9296 0.034864 14.3684 0.0412523 13.8071 0.0564076C12.5841 0.0893686 11.3505 0.161271 10.141 0.378203C8.91406 0.598124 7.77205 0.95723 6.65736 1.52328C5.56163 2.07974 4.55901 2.80658 3.68965 3.67383C2.82044 4.54088 2.09183 5.54085 1.53408 6.63367C0.966197 7.74625 0.606141 8.88603 0.385541 10.1106C0.168339 11.3167 0.0963682 12.5468 0.0632714 13.7664C0.0481841 14.3262 0.0416599 14.8862 0.0382619 15.4462C0.0341842 16.1111 0 16.937 0 17.6019L0.000203882 25.0837L0 30.9222L0.034524 38.563C0.034524 39.2287 0.0342522 39.8945 0.0382619 40.5602C0.0416599 41.121 0.0481841 41.6817 0.0633393 42.2423C0.0963682 43.464 0.168475 44.6963 0.385881 45.9045C0.606413 47.13 0.966401 48.2707 1.5338 49.3842C2.09163 50.4788 2.82037 51.4803 3.68965 52.3486C4.55894 53.2169 5.56129 53.9447 6.65682 54.5019C7.77219 55.0691 8.91474 55.4288 10.1424 55.6491C11.3513 55.8661 12.5846 55.938 13.8071 55.971C14.3684 55.9861 14.9297 55.9926 15.4912 55.996C16.1576 56.0001 16.8241 55.9998 17.4906 55.9998L25.1461 56H30.9371L38.5777 55.9997C39.2429 55.9997 39.9081 56.0001 40.5733 55.996C41.1337 55.9926 41.6939 55.9861 42.2541 55.971C43.4746 55.938 44.706 55.8659 45.9131 55.6488C47.1377 55.4285 48.2774 55.0689 49.39 54.5021C50.4836 53.9449 51.4843 53.2171 52.3519 52.3486C53.2195 51.4804 53.9466 50.4791 54.5034 49.3847C55.07 48.2707 55.4294 47.1294 55.6496 45.9031C55.8664 44.6954 55.9383 43.4635 55.9713 42.2423C55.9864 41.6817 55.9929 41.121 55.9962 40.5602C56.0003 39.8945 56 39.2287 56 38.563C56 38.563 55.9996 31.0571 55.9996 30.9222V25.0776C55.9996 24.978 56 17.4407 56 17.4407Z" fill="url(#paint2_linear_611_258)" fill-opacity="0.01"/>
</g>
<g filter="url(#filter1_dd_611_258)">
<path d="M28.0017 9.625C23.0113 9.625 22.385 9.64682 20.425 9.73602C18.4688 9.8256 17.1336 10.1353 15.9652 10.5897C14.7567 11.059 13.7315 11.6869 12.7101 12.7086C11.688 13.7299 11.0602 14.7551 10.5893 15.9633C10.1338 17.132 9.82368 18.4677 9.73563 20.4231C9.64797 22.3831 9.625 23.0098 9.625 28.0002C9.625 32.9906 9.6472 33.615 9.73602 35.575C9.82598 37.5312 10.1357 38.8664 10.5897 40.0348C11.0594 41.2433 11.6872 42.2685 12.709 43.2899C13.7299 44.312 14.7551 44.9414 15.9629 45.4107C17.132 45.8651 18.4677 46.1748 20.4235 46.2644C22.3835 46.3536 23.0094 46.3754 27.9994 46.3754C32.9902 46.3754 33.6146 46.3536 35.5746 46.2644C37.5308 46.1748 38.8676 45.8651 40.0367 45.4107C41.2449 44.9414 42.2685 44.312 43.2895 43.2899C44.3116 42.2685 44.9394 41.2434 45.4103 40.0352C45.862 38.8664 46.1721 37.5308 46.264 35.5754C46.352 33.6153 46.375 32.9906 46.375 28.0002C46.375 23.0098 46.352 22.3835 46.264 20.4235C46.1721 18.4673 45.862 17.132 45.4103 15.9637C44.9394 14.7551 44.3116 13.7299 43.2895 12.7086C42.2674 11.6865 41.2453 11.0586 40.0356 10.5897C38.8641 10.1353 37.5281 9.8256 35.5719 9.73602C33.6119 9.64682 32.9879 9.625 27.996 9.625H28.0017ZM26.3533 12.9364C26.8426 12.9356 27.3885 12.9364 28.0017 12.9364C32.9079 12.9364 33.4894 12.954 35.4268 13.042C37.2184 13.1239 38.1908 13.4233 38.8385 13.6748C39.696 14.0079 40.3074 14.406 40.9501 15.0491C41.5932 15.6923 41.9914 16.3048 42.3252 17.1623C42.5767 17.8092 42.8764 18.7816 42.958 20.5732C43.046 22.5102 43.0652 23.0921 43.0652 27.996C43.0652 32.8999 43.046 33.4817 42.958 35.4188C42.8761 37.2104 42.5767 38.1827 42.3252 38.8297C41.9921 39.6872 41.5932 40.2978 40.9501 40.9405C40.307 41.5837 39.6964 41.9818 38.8385 42.3149C38.1915 42.5675 37.2184 42.8661 35.4268 42.948C33.4898 43.0361 32.9079 43.0552 28.0017 43.0552C23.0952 43.0552 22.5137 43.0361 20.5766 42.948C18.785 42.8653 17.8127 42.566 17.1646 42.3145C16.3071 41.9814 15.6946 41.5833 15.0514 40.9402C14.4083 40.297 14.0102 39.6861 13.6763 38.8282C13.4248 38.1812 13.1251 37.2088 13.0436 35.4173C12.9555 33.4802 12.9379 32.8983 12.9379 27.9914C12.9379 23.0844 12.9555 22.5056 13.0436 20.5686C13.1255 18.777 13.4248 17.8046 13.6763 17.1569C14.0094 16.2994 14.4083 15.6869 15.0514 15.0438C15.6946 14.4006 16.3071 14.0025 17.1646 13.6687C17.8123 13.416 18.785 13.1174 20.5766 13.0351C22.2717 12.9586 22.9286 12.9356 26.3533 12.9318V12.9364ZM37.8102 15.9874C36.5929 15.9874 35.6052 16.9739 35.6052 18.1917C35.6052 19.409 36.5929 20.3967 37.8102 20.3967C39.0276 20.3967 40.0153 19.409 40.0153 18.1917C40.0153 16.9743 39.0276 15.9866 37.8102 15.9866V15.9874ZM28.0017 18.5638C22.7904 18.5638 18.5653 22.7889 18.5653 28.0002C18.5653 33.2115 22.7904 37.4347 28.0017 37.4347C33.213 37.4347 37.4366 33.2115 37.4366 28.0002C37.4366 22.7889 33.213 18.5638 28.0017 18.5638ZM28.0017 21.8751C31.3843 21.8751 34.1268 24.6172 34.1268 28.0002C34.1268 31.3828 31.3843 34.1253 28.0017 34.1253C24.6188 34.1253 21.8767 31.3828 21.8767 28.0002C21.8767 24.6172 24.6188 21.8751 28.0017 21.8751Z" fill="url(#paint3_linear_611_258)"/>
</g>
</g>
</g>
<defs>
<filter id="filter0_ii_611_258" x="0" y="-1.46973" width="56" height="58.4985" filterUnits="userSpaceOnUse" color-interpolation-filters="sRGB">
<feFlood flood-opacity="0" result="BackgroundImageFix"/>
<feBlend mode="normal" in="SourceGraphic" in2="BackgroundImageFix" result="shape"/>
<feColorMatrix in="SourceAlpha" type="matrix" values="0 0 0 0 0 0 0 0 0 0 0 0 0 0 0 0 0 0 127 0" result="hardAlpha"/>
<feOffset dy="-1.46973"/>
<feGaussianBlur stdDeviation="1.46973"/>
<feComposite in2="hardAlpha" operator="arithmetic" k2="-1" k3="1"/>
<feColorMatrix type="matrix" values="0 0 0 0 0 0 0 0 0 0 0 0 0 0 0 0 0 0 0.3 0"/>
<feBlend mode="normal" in2="shape" result="effect1_innerShadow_611_258"/>
<feColorMatrix in="SourceAlpha" type="matrix" values="0 0 0 0 0 0 0 0 0 0 0 0 0 0 0 0 0 0 127 0" result="hardAlpha"/>
<feOffset dy="1.02881"/>
<feGaussianBlur stdDeviation="2.35156"/>
<feComposite in2="hardAlpha" operator="arithmetic" k2="-1" k3="1"/>
<feColorMatrix type="matrix" values="0 0 0 0 1 0 0 0 0 1 0 0 0 0 1 0 0 0 0.15 0"/>
<feBlend mode="normal" in2="effect1_innerShadow_611_258" result="effect2_innerShadow_611_258"/>
</filter>
<filter id="filter1_dd_611_258" x="3.84976" y="5.29357" width="48.3005" height="48.301" filterUnits="userSpaceOnUse" color-interpolation-filters="sRGB">
<feFlood flood-opacity="0" result="BackgroundImageFix"/>
<feColorMatrix in="SourceAlpha" type="matrix" values="0 0 0 0 0 0 0 0 0 0 0 0 0 0 0 0 0 0 127 0" result="hardAlpha"/>
<feMorphology radius="1.44381" operator="dilate" in="SourceAlpha" result="effect1_dropShadow_611_258"/>
<feOffset dy="1.44381"/>
<feGaussianBlur stdDeviation="2.16571"/>
<feColorMatrix type="matrix" values="0 0 0 0 0 0 0 0 0 0 0 0 0 0 0 0 0 0 0.15 0"/>
<feBlend mode="normal" in2="BackgroundImageFix" result="effect1_dropShadow_611_258"/>
<feColorMatrix in="SourceAlpha" type="matrix" values="0 0 0 0 0 0 0 0 0 0 0 0 0 0 0 0 0 0 127 0" result="hardAlpha"/>
<feOffset dy="0.721904"/>
<feGaussianBlur stdDeviation="0.721904"/>
<feColorMatrix type="matrix" values="0 0 0 0 0 0 0 0 0 0 0 0 0 0 0 0 0 0 0.3 0"/>
<feBlend mode="normal" in2="effect1_dropShadow_611_258" result="effect2_dropShadow_611_258"/>
<feBlend mode="normal" in="SourceGraphic" in2="effect2_dropShadow_611_258" result="shape"/>
</filter>
<radialGradient id="paint0_radial_611_258" cx="0" cy="0" r="1" gradientUnits="userSpaceOnUse" gradientTransform="translate(14.2325 60.3806) rotate(-90) scale(56.3673 52.4261)">
<stop stop-color="#FFDD55"/>
<stop offset="0.1" stop-color="#FFDD55"/>
<stop offset="0.5" stop-color="#FF543E"/>
<stop offset="1" stop-color="#C837AB"/>
</radialGradient>
<radialGradient id="paint1_radial_611_258" cx="0" cy="0" r="1" gradientUnits="userSpaceOnUse" gradientTransform="translate(-10.4019 3.22218) rotate(78.6806) scale(25.1964 103.861)">
<stop stop-color="#3771C8"/>
<stop offset="0.128" stop-color="#3771C8"/>
<stop offset="1" stop-color="#6600FF" stop-opacity="0"/>
</radialGradient>
<linearGradient id="paint2_linear_611_258" x1="-19.1066" y1="0" x2="-19.1066" y2="94.2133" gradientUnits="userSpaceOnUse">
<stop stop-color="white"/>
<stop offset="0.489516" stop-color="#EFEFEF"/>
<stop offset="1" stop-color="#C0C0C0"/>
</linearGradient>
<linearGradient id="paint3_linear_611_258" x1="28" y1="21" x2="28" y2="46.3754" gradientUnits="userSpaceOnUse">
<stop stop-color="white"/>
<stop offset="1" stop-color="#CEF3FF"/>
</linearGradient>
<clipPath id="clip0_611_258">
<rect width="56" height="56" fill="white"/>
</clipPath>
</defs>
</svg>
