<svg width="52" height="52" viewBox="0 0 56 56" fill="none" xmlns="http://www.w3.org/2000/svg">
<g clip-path="url(#clip0_611_257)">
<mask id="mask0_611_257" style="mask-type:luminance" maskUnits="userSpaceOnUse" x="0" y="0" width="56" height="56">
<path fill-rule="evenodd" clip-rule="evenodd" d="M56 17.4407C56 16.7759 56.0003 16.111 55.9962 15.4462C55.9929 14.8861 55.9864 14.3262 55.9712 13.7664C55.9383 12.5463 55.8663 11.3157 55.6493 10.1092C55.4293 8.88528 55.0699 7.74619 54.5036 6.63414C53.9468 5.54113 53.2196 4.54095 52.3519 3.67383C51.4844 2.80672 50.4839 2.07994 49.3905 1.52355C48.2773 0.957094 47.137 0.597852 45.9117 0.377863C44.7051 0.161203 43.4742 0.0893686 42.2541 0.0564076C41.6939 0.0412523 41.1337 0.034864 40.5733 0.0313979C39.9081 0.0273203 39.2429 0.0276601 38.5777 0.0276601L30.8541 0H25.0775L17.4906 0.0276601C16.8241 0.0276601 16.1576 0.0273203 15.4911 0.0313979C14.9296 0.034864 14.3684 0.0412523 13.8071 0.0564076C12.5841 0.0893686 11.3505 0.161271 10.141 0.378203C8.91406 0.598124 7.77205 0.95723 6.65736 1.52328C5.56163 2.07974 4.55901 2.80658 3.68965 3.67383C2.82044 4.54088 2.09183 5.54085 1.53408 6.63367C0.966197 7.74625 0.606141 8.88603 0.385541 10.1106C0.168339 11.3166 0.0963682 12.5468 0.0632714 13.7664C0.0481841 14.3262 0.0416599 14.8862 0.0382619 15.4462C0.0341842 16.1111 0 16.937 0 17.6019L0.000203882 25.0837L0 30.9222L0.034524 38.563C0.034524 39.2287 0.0342522 39.8945 0.0382619 40.5602C0.0416599 41.121 0.0481841 41.6817 0.0633393 42.2423C0.0963682 43.464 0.168474 44.6963 0.385881 45.9045C0.606413 47.13 0.966401 48.2707 1.5338 49.3842C2.09163 50.4788 2.82037 51.4803 3.68965 52.3486C4.55894 53.2169 5.56129 53.9447 6.65682 54.5019C7.77219 55.0691 8.91474 55.4288 10.1424 55.6491C11.3513 55.8661 12.5846 55.938 13.8071 55.971C14.3684 55.9861 14.9297 55.9926 15.4912 55.996C16.1576 56.0001 16.8241 55.9998 17.4906 55.9998L25.1461 56H30.9371L38.5777 55.9997C39.2429 55.9997 39.9081 56.0001 40.5733 55.996C41.1337 55.9926 41.6939 55.9861 42.2541 55.971C43.4746 55.938 44.706 55.8659 45.9131 55.6488C47.1377 55.4285 48.2774 55.0689 49.39 54.5021C50.4836 53.9449 51.4843 53.2171 52.3519 52.3486C53.2195 51.4804 53.9466 50.4791 54.5034 49.3847C55.07 48.2707 55.4294 47.1294 55.6496 45.903C55.8664 44.6954 55.9383 43.4635 55.9713 42.2423C55.9864 41.6817 55.9929 41.121 55.9962 40.5602C56.0003 39.8945 56 39.2287 56 38.563C56 38.563 55.9996 31.0571 55.9996 30.9222V25.0776C55.9996 24.978 56 17.4407 56 17.4407Z" fill="white"/>
</mask>
<g mask="url(#mask0_611_257)">
<rect x="-3.94189" y="-4.21362" width="62.1165" height="62.1165" fill="#0E68C2"/>
<g filter="url(#filter0_ii_611_257)">
<path fill-rule="evenodd" clip-rule="evenodd" d="M56 17.4407C56 16.7759 56.0003 16.111 55.9962 15.4462C55.9929 14.8861 55.9864 14.3262 55.9712 13.7664C55.9383 12.5463 55.8663 11.3157 55.6493 10.1092C55.4293 8.88528 55.0699 7.74619 54.5036 6.63414C53.9468 5.54113 53.2196 4.54095 52.3519 3.67383C51.4844 2.80672 50.4839 2.07994 49.3905 1.52355C48.2773 0.957094 47.137 0.597852 45.9117 0.377863C44.7051 0.161203 43.4742 0.0893686 42.2541 0.0564076C41.6939 0.0412523 41.1337 0.034864 40.5733 0.0313979C39.9081 0.0273203 39.2429 0.0276601 38.5777 0.0276601L30.8541 0H25.0775L17.4906 0.0276601C16.8241 0.0276601 16.1576 0.0273203 15.4911 0.0313979C14.9296 0.034864 14.3684 0.0412523 13.8071 0.0564076C12.5841 0.0893686 11.3505 0.161271 10.141 0.378203C8.91406 0.598124 7.77205 0.95723 6.65736 1.52328C5.56163 2.07974 4.55901 2.80658 3.68965 3.67383C2.82044 4.54088 2.09183 5.54085 1.53408 6.63367C0.966197 7.74625 0.606141 8.88603 0.385541 10.1106C0.168339 11.3166 0.0963682 12.5468 0.0632714 13.7664C0.0481841 14.3262 0.0416599 14.8862 0.0382619 15.4462C0.0341842 16.1111 0 16.937 0 17.6019L0.000203882 25.0837L0 30.9222L0.034524 38.563C0.034524 39.2287 0.0342522 39.8945 0.0382619 40.5602C0.0416599 41.121 0.0481841 41.6817 0.0633393 42.2423C0.0963682 43.464 0.168474 44.6963 0.385881 45.9045C0.606413 47.13 0.966401 48.2707 1.5338 49.3842C2.09163 50.4788 2.82037 51.4803 3.68965 52.3486C4.55894 53.2169 5.56129 53.9447 6.65682 54.5019C7.77219 55.0691 8.91474 55.4288 10.1424 55.6491C11.3513 55.8661 12.5846 55.938 13.8071 55.971C14.3684 55.9861 14.9297 55.9926 15.4912 55.996C16.1576 56.0001 16.8241 55.9998 17.4906 55.9998L25.1461 56H30.9371L38.5777 55.9997C39.2429 55.9997 39.9081 56.0001 40.5733 55.996C41.1337 55.9926 41.6939 55.9861 42.2541 55.971C43.4746 55.938 44.706 55.8659 45.9131 55.6488C47.1377 55.4285 48.2774 55.0689 49.39 54.5021C50.4836 53.9449 51.4843 53.2171 52.3519 52.3486C53.2195 51.4804 53.9466 50.4791 54.5034 49.3847C55.07 48.2707 55.4294 47.1294 55.6496 45.903C55.8664 44.6954 55.9383 43.4635 55.9713 42.2423C55.9864 41.6817 55.9929 41.121 55.9962 40.5602C56.0003 39.8945 56 39.2287 56 38.563C56 38.563 55.9996 31.0571 55.9996 30.9222V25.0776C55.9996 24.978 56 17.4407 56 17.4407Z" fill="url(#paint0_linear_611_257)" fill-opacity="0.01"/>
</g>
<g filter="url(#filter1_dddiii_611_257)">
<path d="M11.0716 21.4392C11.0716 20.8762 11.528 20.4198 12.091 20.4198H17.197C17.76 20.4198 18.2164 20.8762 18.2164 21.4392V42.5497C18.2164 43.1127 17.76 43.5691 17.197 43.5691H12.091C11.528 43.5691 11.0716 43.1127 11.0716 42.5497V21.4392ZM10.5 13.132C10.5 11.9889 10.8969 11.0203 11.6908 10.2265C12.5164 9.40085 13.5008 8.98804 14.644 8.98804C15.7872 8.98804 16.7557 9.40085 17.5496 10.2265C18.3752 11.0203 18.788 11.9889 18.788 13.132C18.788 14.2752 18.3752 15.2596 17.5496 16.0852C16.7557 16.8791 15.7872 17.2761 14.644 17.2761C13.5008 17.2761 12.5164 16.8791 11.6908 16.0852C10.8969 15.2596 10.5 14.2752 10.5 13.132Z" fill="#F8F5F5"/>
<path d="M23.3496 21.4392C23.3496 20.8762 23.806 20.4198 24.369 20.4198H29.1892C29.7522 20.4198 30.2086 20.8762 30.2086 21.4392V23.5046C30.2086 23.5372 30.235 23.5635 30.2675 23.5635C30.2898 23.5635 30.3101 23.5509 30.3203 23.5311C30.5417 23.0973 30.8537 22.6636 31.2565 22.2298C31.6693 21.7852 32.1615 21.3883 32.7331 21.039C33.3047 20.6897 33.9557 20.4039 34.686 20.1816C35.4164 19.9593 36.2103 19.8482 37.0677 19.8482C38.8777 19.8482 40.3384 20.134 41.4498 20.7056C42.5612 21.2454 43.4186 22.0075 44.022 22.9919C44.6571 23.9763 45.0858 25.1354 45.308 26.4691C45.5303 27.8028 45.6415 29.2476 45.6415 30.8036V42.5497C45.6415 43.1127 45.1851 43.5691 44.6221 43.5691H39.516C38.953 43.5691 38.4966 43.1127 38.4966 42.5497V32.2326C38.4966 31.5657 38.4649 30.883 38.4014 30.1844C38.3696 29.454 38.2267 28.7872 37.9727 28.1839C37.7504 27.5805 37.3852 27.0883 36.8771 26.7073C36.4008 26.3262 35.7022 26.1357 34.7813 26.1357C33.8604 26.1357 33.1142 26.3103 32.5426 26.6596C31.971 26.9772 31.5264 27.4217 31.2089 27.9933C30.9231 28.5332 30.7326 29.1524 30.6373 29.851C30.542 30.5496 30.4944 31.28 30.4944 32.0421V42.5497C30.4944 43.1127 30.038 43.5691 29.475 43.5691H24.369C23.806 43.5691 23.3496 43.1127 23.3496 42.5497V21.4392Z" fill="#F8F5F5"/>
</g>
</g>
</g>
<defs>
<filter id="filter0_ii_611_257" x="0" y="-1.35922" width="56" height="58.3107" filterUnits="userSpaceOnUse" color-interpolation-filters="sRGB">
<feFlood flood-opacity="0" result="BackgroundImageFix"/>
<feBlend mode="normal" in="SourceGraphic" in2="BackgroundImageFix" result="shape"/>
<feColorMatrix in="SourceAlpha" type="matrix" values="0 0 0 0 0 0 0 0 0 0 0 0 0 0 0 0 0 0 127 0" result="hardAlpha"/>
<feOffset dy="-1.35922"/>
<feGaussianBlur stdDeviation="1.35922"/>
<feComposite in2="hardAlpha" operator="arithmetic" k2="-1" k3="1"/>
<feColorMatrix type="matrix" values="0 0 0 0 0 0 0 0 0 0 0 0 0 0 0 0 0 0 0.3 0"/>
<feBlend mode="normal" in2="shape" result="effect1_innerShadow_611_257"/>
<feColorMatrix in="SourceAlpha" type="matrix" values="0 0 0 0 0 0 0 0 0 0 0 0 0 0 0 0 0 0 127 0" result="hardAlpha"/>
<feOffset dy="0.951456"/>
<feGaussianBlur stdDeviation="2.17476"/>
<feComposite in2="hardAlpha" operator="arithmetic" k2="-1" k3="1"/>
<feColorMatrix type="matrix" values="0 0 0 0 1 0 0 0 0 1 0 0 0 0 1 0 0 0 0.15 0"/>
<feBlend mode="normal" in2="effect1_innerShadow_611_257" result="effect2_innerShadow_611_257"/>
</filter>
<filter id="filter1_dddiii_611_257" x="3.56796" y="2.46376" width="49.8211" height="49.2607" filterUnits="userSpaceOnUse" color-interpolation-filters="sRGB">
<feFlood flood-opacity="0" result="BackgroundImageFix"/>
<feColorMatrix in="SourceAlpha" type="matrix" values="0 0 0 0 0 0 0 0 0 0 0 0 0 0 0 0 0 0 127 0" result="hardAlpha"/>
<feOffset dx="0.407767" dy="2.17476"/>
<feGaussianBlur stdDeviation="1.69903"/>
<feColorMatrix type="matrix" values="0 0 0 0 0 0 0 0 0 0.0833333 0 0 0 0 0.166667 0 0 0 0.2 0"/>
<feBlend mode="normal" in2="BackgroundImageFix" result="effect1_dropShadow_611_257"/>
<feColorMatrix in="SourceAlpha" type="matrix" values="0 0 0 0 0 0 0 0 0 0 0 0 0 0 0 0 0 0 127 0" result="hardAlpha"/>
<feOffset dx="0.407767" dy="0.815534"/>
<feGaussianBlur stdDeviation="3.6699"/>
<feColorMatrix type="matrix" values="0 0 0 0 0.14875 0 0 0 0 0.424375 0 0 0 0 0.7 0 0 0 0.3 0"/>
<feBlend mode="normal" in2="effect1_dropShadow_611_257" result="effect2_dropShadow_611_257"/>
<feColorMatrix in="SourceAlpha" type="matrix" values="0 0 0 0 0 0 0 0 0 0 0 0 0 0 0 0 0 0 127 0" result="hardAlpha"/>
<feOffset dy="0.407767"/>
<feGaussianBlur stdDeviation="1.35922"/>
<feColorMatrix type="matrix" values="0 0 0 0 0 0 0 0 0 0.157362 0 0 0 0 0.316667 0 0 0 0.2 0"/>
<feBlend mode="normal" in2="effect2_dropShadow_611_257" result="effect3_dropShadow_611_257"/>
<feBlend mode="normal" in="SourceGraphic" in2="effect3_dropShadow_611_257" result="shape"/>
<feColorMatrix in="SourceAlpha" type="matrix" values="0 0 0 0 0 0 0 0 0 0 0 0 0 0 0 0 0 0 127 0" result="hardAlpha"/>
<feOffset dx="0.883495" dy="-1.2233"/>
<feGaussianBlur stdDeviation="1.35922"/>
<feComposite in2="hardAlpha" operator="arithmetic" k2="-1" k3="1"/>
<feColorMatrix type="matrix" values="0 0 0 0 0.368958 0 0 0 0 0.665729 0 0 0 0 0.9625 0 0 0 0.3 0"/>
<feBlend mode="normal" in2="shape" result="effect4_innerShadow_611_257"/>
<feColorMatrix in="SourceAlpha" type="matrix" values="0 0 0 0 0 0 0 0 0 0 0 0 0 0 0 0 0 0 127 0" result="hardAlpha"/>
<feOffset dx="-1.63107" dy="-0.679612"/>
<feGaussianBlur stdDeviation="1.01942"/>
<feComposite in2="hardAlpha" operator="arithmetic" k2="-1" k3="1"/>
<feColorMatrix type="matrix" values="0 0 0 0 0.00177082 0 0 0 0 0.145669 0 0 0 0 0.425 0 0 0 0.16 0"/>
<feBlend mode="normal" in2="effect4_innerShadow_611_257" result="effect5_innerShadow_611_257"/>
<feColorMatrix in="SourceAlpha" type="matrix" values="0 0 0 0 0 0 0 0 0 0 0 0 0 0 0 0 0 0 127 0" result="hardAlpha"/>
<feOffset dx="0.543689" dy="0.271845"/>
<feGaussianBlur stdDeviation="1.35922"/>
<feComposite in2="hardAlpha" operator="arithmetic" k2="-1" k3="1"/>
<feColorMatrix type="matrix" values="0 0 0 0 0.745833 0 0 0 0 0.878 0 0 0 0 1 0 0 0 0.35 0"/>
<feBlend mode="normal" in2="effect5_innerShadow_611_257" result="effect6_innerShadow_611_257"/>
</filter>
<linearGradient id="paint0_linear_611_257" x1="-19.1066" y1="0" x2="-19.1066" y2="94.2133" gradientUnits="userSpaceOnUse">
<stop stop-color="white"/>
<stop offset="0.489516" stop-color="#EFEFEF"/>
<stop offset="1" stop-color="#C0C0C0"/>
</linearGradient>
<clipPath id="clip0_611_257">
<rect width="56" height="56" fill="white"/>
</clipPath>
</defs>
</svg>
