<svg width="48" height="56" viewBox="0 0 56 56" fill="none" xmlns="http://www.w3.org/2000/svg">
<path d="M54.83 34L53.2815 32.4515C52.1551 31.3251 51.9879 29.5929 52 28C52 26.8133 51.6481 25.6533 50.9888 24.6666C50.3295 23.6799 49.3925 22.9109 48.2961 22.4567C47.1997 22.0026 45.9933 21.8838 44.8295 22.1153C43.6656 22.3468 42.5965 22.9182 41.7574 23.7574C40.9182 24.5965 40.3468 25.6656 40.1153 26.8295C39.8838 27.9933 40.0026 29.1997 40.4567 30.2961C40.9108 31.3925 41.6799 32.3295 42.6666 32.9888C43.6533 33.6481 44.8133 34 46 34C47.5941 33.9884 49.3277 34.1557 50.4549 35.2829L50.7384 35.5664C51.5462 36.3742 52 37.4698 52 38.6122V46C52 49.3137 49.3137 52 46 52C42.6863 52 40 49.3137 40 46C39.9947 42.2886 38.518 38.7307 35.8937 36.1064C33.2693 33.482 29.7114 32.0053 26 32H14C10.2886 32.0053 6.73071 33.482 4.10635 36.1064C1.48199 38.7307 0.00529068 42.2886 0 46V49C0 52.866 3.13401 56 7 56H49C52.866 56 56 52.866 56 49V36.828C56.0003 35.7675 55.5795 34.7503 54.83 34ZM4 46C4.00318 43.3488 5.05776 40.8071 6.93244 38.9324C8.80712 37.0578 11.3488 36.0032 14 36H26C28.6512 36.0032 31.1929 37.0578 33.0676 38.9324C34.9422 40.8071 35.9968 43.3488 36 46C36 49.3137 33.3137 52 30 52H10C6.68629 52 4 49.3137 4 46Z" fill="#D2FC3C"/>
<path d="M20 4C21.9778 4 23.9112 4.58649 25.5557 5.6853C27.2002 6.78412 28.4819 8.3459 29.2388 10.1732C29.9957 12.0004 30.1937 14.0111 29.8079 15.9509C29.422 17.8907 28.4696 19.6725 27.0711 21.0711C25.6725 22.4696 23.8907 23.422 21.9509 23.8079C20.0111 24.1937 18.0004 23.9957 16.1732 23.2388C14.3459 22.4819 12.7841 21.2002 11.6853 19.5557C10.5865 17.9112 10 15.9778 10 14C10 11.3478 11.0536 8.8043 12.9289 6.92893C14.8043 5.05357 17.3478 4 20 4ZM20 0C17.2311 0 14.5243 0.821086 12.222 2.35943C9.91974 3.89777 8.12532 6.08427 7.06569 8.64243C6.00607 11.2006 5.72882 14.0155 6.26901 16.7313C6.80921 19.447 8.14258 21.9416 10.1005 23.8995C12.0584 25.8574 14.553 27.1908 17.2687 27.731C19.9845 28.2712 22.7994 27.9939 25.3576 26.9343C27.9157 25.8747 30.1022 24.0803 31.6406 21.778C33.1789 19.4757 34 16.7689 34 14C34 10.287 32.525 6.72601 29.8995 4.1005C27.274 1.475 23.713 0 20 0Z" fill="#D2FC3C"/>
</svg>
