<svg width="52" height="52" viewBox="0 0 56 56" fill="none" xmlns="http://www.w3.org/2000/svg">
<g clip-path="url(#clip0_611_259)">
<mask id="mask0_611_259" style="mask-type:luminance" maskUnits="userSpaceOnUse" x="0" y="0" width="56" height="56">
<path fill-rule="evenodd" clip-rule="evenodd" d="M56 17.4407C56 16.7759 56.0003 16.111 55.9962 15.4462C55.9929 14.8861 55.9864 14.3262 55.9712 13.7664C55.9383 12.5463 55.8663 11.3157 55.6493 10.1092C55.4293 8.88528 55.0699 7.74619 54.5036 6.63414C53.9468 5.54113 53.2196 4.54095 52.3519 3.67383C51.4844 2.80672 50.4839 2.07994 49.3905 1.52355C48.2773 0.957094 47.137 0.597852 45.9117 0.377863C44.7051 0.161203 43.4742 0.0893686 42.2541 0.0564076C41.6939 0.0412523 41.1337 0.034864 40.5733 0.0313979C39.9081 0.0273203 39.2429 0.0276601 38.5777 0.0276601L30.8541 0H25.0775L17.4906 0.0276601C16.8241 0.0276601 16.1576 0.0273203 15.4911 0.0313979C14.9296 0.034864 14.3684 0.0412523 13.8071 0.0564076C12.5841 0.0893686 11.3505 0.161271 10.141 0.378203C8.91406 0.598124 7.77205 0.95723 6.65736 1.52328C5.56163 2.07974 4.55901 2.80658 3.68965 3.67383C2.82044 4.54088 2.09183 5.54085 1.53408 6.63367C0.966197 7.74625 0.606141 8.88603 0.385541 10.1106C0.168339 11.3166 0.0963682 12.5468 0.0632714 13.7664C0.0481841 14.3262 0.0416599 14.8862 0.0382619 15.4462C0.0341842 16.1111 0 16.937 0 17.6019L0.000203882 25.0837L0 30.9222L0.034524 38.563C0.034524 39.2287 0.0342522 39.8945 0.0382619 40.5602C0.0416599 41.121 0.0481841 41.6817 0.0633393 42.2423C0.0963682 43.464 0.168474 44.6963 0.385881 45.9045C0.606413 47.13 0.966401 48.2707 1.5338 49.3842C2.09163 50.4788 2.82037 51.4803 3.68965 52.3486C4.55894 53.2169 5.56129 53.9447 6.65682 54.5019C7.77219 55.0691 8.91474 55.4288 10.1424 55.6491C11.3513 55.8661 12.5846 55.938 13.8071 55.971C14.3684 55.9861 14.9297 55.9926 15.4912 55.996C16.1576 56.0001 16.8241 55.9998 17.4906 55.9998L25.1461 56H30.9371L38.5777 55.9997C39.2429 55.9997 39.9081 56.0001 40.5733 55.996C41.1337 55.9926 41.6939 55.9861 42.2541 55.971C43.4746 55.938 44.706 55.8659 45.9131 55.6488C47.1377 55.4285 48.2774 55.0689 49.39 54.5021C50.4836 53.9449 51.4843 53.2171 52.3519 52.3486C53.2195 51.4804 53.9466 50.4791 54.5034 49.3847C55.07 48.2707 55.4294 47.1294 55.6496 45.903C55.8664 44.6954 55.9383 43.4635 55.9713 42.2423C55.9864 41.6817 55.9929 41.121 55.9962 40.5602C56.0003 39.8945 56 39.2287 56 38.563C56 38.563 55.9996 31.0571 55.9996 30.9222V25.0776C55.9996 24.978 56 17.4407 56 17.4407Z" fill="white"/>
</mask>
<g mask="url(#mask0_611_259)">
<rect x="-3.94177" y="-4.21362" width="62.1165" height="62.1165" fill="#101010"/>
<g filter="url(#filter0_ii_611_259)">
<path fill-rule="evenodd" clip-rule="evenodd" d="M56 17.4407C56 16.7759 56.0003 16.111 55.9962 15.4462C55.9929 14.8861 55.9864 14.3262 55.9712 13.7664C55.9383 12.5463 55.8663 11.3157 55.6493 10.1092C55.4293 8.88528 55.0699 7.74619 54.5036 6.63414C53.9468 5.54113 53.2196 4.54095 52.3519 3.67383C51.4844 2.80672 50.4839 2.07994 49.3905 1.52355C48.2773 0.957094 47.137 0.597852 45.9117 0.377863C44.7051 0.161203 43.4742 0.0893686 42.2541 0.0564076C41.6939 0.0412523 41.1337 0.034864 40.5733 0.0313979C39.9081 0.0273203 39.2429 0.0276601 38.5777 0.0276601L30.8541 0H25.0775L17.4906 0.0276601C16.8241 0.0276601 16.1576 0.0273203 15.4911 0.0313979C14.9296 0.034864 14.3684 0.0412523 13.8071 0.0564076C12.5841 0.0893686 11.3505 0.161271 10.141 0.378203C8.91406 0.598124 7.77205 0.95723 6.65736 1.52328C5.56163 2.07974 4.55901 2.80658 3.68965 3.67383C2.82044 4.54088 2.09183 5.54085 1.53408 6.63367C0.966197 7.74625 0.606141 8.88603 0.385541 10.1106C0.168339 11.3166 0.0963682 12.5468 0.0632714 13.7664C0.0481841 14.3262 0.0416599 14.8862 0.0382619 15.4462C0.0341842 16.1111 0 16.937 0 17.6019L0.000203882 25.0837L0 30.9222L0.034524 38.563C0.034524 39.2287 0.0342522 39.8945 0.0382619 40.5602C0.0416599 41.121 0.0481841 41.6817 0.0633393 42.2423C0.0963682 43.464 0.168474 44.6963 0.385881 45.9045C0.606413 47.13 0.966401 48.2707 1.5338 49.3842C2.09163 50.4788 2.82037 51.4803 3.68965 52.3486C4.55894 53.2169 5.56129 53.9447 6.65682 54.5019C7.77219 55.0691 8.91474 55.4288 10.1424 55.6491C11.3513 55.8661 12.5846 55.938 13.8071 55.971C14.3684 55.9861 14.9297 55.9926 15.4912 55.996C16.1576 56.0001 16.8241 55.9998 17.4906 55.9998L25.1461 56H30.9371L38.5777 55.9997C39.2429 55.9997 39.9081 56.0001 40.5733 55.996C41.1337 55.9926 41.6939 55.9861 42.2541 55.971C43.4746 55.938 44.706 55.8659 45.9131 55.6488C47.1377 55.4285 48.2774 55.0689 49.39 54.5021C50.4836 53.9449 51.4843 53.2171 52.3519 52.3486C53.2195 51.4804 53.9466 50.4791 54.5034 49.3847C55.07 48.2707 55.4294 47.1294 55.6496 45.903C55.8664 44.6954 55.9383 43.4635 55.9713 42.2423C55.9864 41.6817 55.9929 41.121 55.9962 40.5602C56.0003 39.8945 56 39.2287 56 38.563C56 38.563 55.9996 31.0571 55.9996 30.9222V25.0776C55.9996 24.978 56 17.4407 56 17.4407Z" fill="url(#paint0_linear_611_259)" fill-opacity="0.01"/>
</g>
<path d="M45.2664 19.576C44.8632 18.0692 43.679 16.8851 42.1722 16.4818C39.444 15.75 28.499 15.75 28.499 15.75C28.499 15.75 17.5541 15.75 14.8258 16.4818C13.3191 16.8851 12.135 18.0692 11.7317 19.576C10.9999 22.3043 10.9999 28 10.9999 28C10.9999 28 10.9999 33.6958 11.7317 36.4241C12.135 37.9308 13.3191 39.1149 14.8258 39.5182C17.5541 40.25 28.499 40.25 28.499 40.25C28.499 40.25 39.444 40.25 42.1722 39.5182C43.679 39.1149 44.8632 37.9308 45.2664 36.4241C45.9983 33.6958 45.9983 28 45.9983 28C45.9983 28 45.9953 22.3043 45.2664 19.576Z" fill="url(#paint1_linear_611_259)"/>
<path d="M24.9961 32.4918C24.9961 32.8286 25.3607 33.0391 25.6523 32.8707L33.4322 28.3793C33.7239 28.2109 33.7239 27.7899 33.4322 27.6215L25.6523 23.1301C25.3607 22.9617 24.9961 23.1722 24.9961 23.509V32.4918Z" fill="url(#paint2_linear_611_259)"/>
</g>
</g>
<defs>
<filter id="filter0_ii_611_259" x="0" y="-1.35922" width="56" height="58.3107" filterUnits="userSpaceOnUse" color-interpolation-filters="sRGB">
<feFlood flood-opacity="0" result="BackgroundImageFix"/>
<feBlend mode="normal" in="SourceGraphic" in2="BackgroundImageFix" result="shape"/>
<feColorMatrix in="SourceAlpha" type="matrix" values="0 0 0 0 0 0 0 0 0 0 0 0 0 0 0 0 0 0 127 0" result="hardAlpha"/>
<feOffset dy="-1.35922"/>
<feGaussianBlur stdDeviation="1.35922"/>
<feComposite in2="hardAlpha" operator="arithmetic" k2="-1" k3="1"/>
<feColorMatrix type="matrix" values="0 0 0 0 0 0 0 0 0 0 0 0 0 0 0 0 0 0 0.3 0"/>
<feBlend mode="normal" in2="shape" result="effect1_innerShadow_611_259"/>
<feColorMatrix in="SourceAlpha" type="matrix" values="0 0 0 0 0 0 0 0 0 0 0 0 0 0 0 0 0 0 127 0" result="hardAlpha"/>
<feOffset dy="0.951456"/>
<feGaussianBlur stdDeviation="2.17476"/>
<feComposite in2="hardAlpha" operator="arithmetic" k2="-1" k3="1"/>
<feColorMatrix type="matrix" values="0 0 0 0 1 0 0 0 0 1 0 0 0 0 1 0 0 0 0.15 0"/>
<feBlend mode="normal" in2="effect1_innerShadow_611_259" result="effect2_innerShadow_611_259"/>
</filter>
<linearGradient id="paint0_linear_611_259" x1="-19.1066" y1="0" x2="-19.1066" y2="94.2133" gradientUnits="userSpaceOnUse">
<stop stop-color="white"/>
<stop offset="0.489516" stop-color="#EFEFEF"/>
<stop offset="1" stop-color="#C0C0C0"/>
</linearGradient>
<linearGradient id="paint1_linear_611_259" x1="28.4991" y1="15.75" x2="28.4991" y2="40.25" gradientUnits="userSpaceOnUse">
<stop stop-color="#FF0000"/>
<stop offset="1" stop-color="#B80202"/>
</linearGradient>
<linearGradient id="paint2_linear_611_259" x1="29.3125" y1="22.7499" x2="29.5423" y2="33.2496" gradientUnits="userSpaceOnUse">
<stop stop-color="white"/>
<stop offset="1" stop-color="#FFCBCB"/>
</linearGradient>
<clipPath id="clip0_611_259">
<rect width="56" height="56" fill="white"/>
</clipPath>
</defs>
</svg>
